<?xml version="1.0" encoding="utf-8"?>
<!-- Generator: Adobe Illustrator 16.0.4, SVG Export Plug-In . SVG Version: 6.00 Build 0)  -->
<!DOCTYPE svg PUBLIC "-//W3C//DTD SVG 1.1//EN" "http://www.w3.org/Graphics/SVG/1.1/DTD/svg11.dtd">
<svg version="1.1" id="Layer_1" xmlns="http://www.w3.org/2000/svg" xmlns:xlink="http://www.w3.org/1999/xlink" x="0px" y="0px"
	 width="267px" height="267px" viewBox="0 0 267 267" enable-background="new 0 0 267 267" xml:space="preserve">
<path id="Blue_1_" d="M252.312,266.754c8.148-0.01,14.747-6.625,14.736-14.773l-0.296-237.838
	c-0.01-8.15-6.624-14.747-14.772-14.737L14.143-0.299C5.991-0.289-0.605,6.324-0.595,14.475l0.296,237.838
	c0.01,8.148,6.623,14.748,14.774,14.737L252.312,266.754z"/>
<path id="f" fill="#FFFFFF" d="M184.186,266.839l-0.129-103.531l34.751-0.043l5.153-40.355l-39.954,0.05l-0.032-25.76
	c-0.015-11.682,3.219-19.647,19.971-19.668l21.366-0.037l-0.045-36.087c-3.697-0.486-16.381-1.569-31.136-1.55
	c-30.805,0.038-51.871,18.867-51.828,53.399l0.037,29.755l-34.841,0.043l0.05,40.35l34.84-0.044l0.129,103.531L184.186,266.839z"/>
</svg>
