<?xml version="1.0" encoding="utf-8"?>
<!-- Generator: Adobe Illustrator 16.0.4, SVG Export Plug-In . SVG Version: 6.00 Build 0)  -->
<!DOCTYPE svg PUBLIC "-//W3C//DTD SVG 1.1//EN" "http://www.w3.org/Graphics/SVG/1.1/DTD/svg11.dtd">
<svg version="1.1" id="Layer_1" xmlns="http://www.w3.org/2000/svg" xmlns:xlink="http://www.w3.org/1999/xlink" x="0px" y="0px"
	 width="80px" height="40px" viewBox="0 0 80 40" enable-background="new 0 0 80 40" xml:space="preserve">
<g opacity="0.5" enable-background="new    ">
	<path fill="#FFFFFF" d="M5.85,38.715V1.662h8v37.053H5.85z"/>
	<path fill="#FFFFFF" d="M20.35,38.715V1.662H32c10.65,0,16.701,4.601,16.701,18.502c0,14.001-6.051,18.551-16.701,18.551H20.35z
		 M28.35,31.864h3.4c6.101,0,8.852-2.25,8.852-11.45c0-9.151-2.75-11.401-8.852-11.401h-3.4V31.864z"/>
	<path fill="#FFFFFF" d="M49.85,34.614l4.551-5.7c2.65,2.102,6.199,3.352,9.802,3.352c4.198,0,5.8-1.5,5.8-4.052
		c0-7.101-18.15-1.95-18.15-15.801c0-8,5.45-11.301,12.45-11.301c6.25,0,9.851,1.351,12.201,2.95l-3.751,6.4
		c-1.898-1.05-4.65-1.95-8.251-1.95c-3.3,0-4.698,1.25-4.698,3.7c0,6.9,18.1,1.75,18.1,15.751c0,6.852-4.25,11.251-13.5,11.251
		C57.85,39.215,53.3,37.615,49.85,34.614z"/>
</g>
</svg>
